<svg xmlns="http://www.w3.org/2000/svg" width="157" height="21" viewBox="0 0 157 21" fill="none"><g clip-path="url(#clip0_2927_3608)"><path d="M47.3364 2.18821C46.5582 2.71546 45.4378 3.74968 44.6697 4.64702C41.5138 8.3327 41.8611 8.41888 38.2616 12.7763C34.4238 17.4227 31.6203 19.2605 28.7888 19.2605C25.9574 19.2605 23.1564 17.4227 19.3161 12.7763C15.7166 8.41888 16.0639 8.3327 12.908 4.64702C12.1399 3.75222 11.0195 2.718 10.2413 2.18821C8.68997 1.13625 4.27933 0.545627 0.768555 0.5C0.768555 1.41508 2.09428 3.26046 2.64435 3.41762C3.22229 3.58238 3.85094 3.69645 4.5683 3.86882C7.31101 4.40875 9.77996 5.70913 11.747 7.54182C12.9764 8.63942 14.0385 10.0234 16.6089 12.7662C20.2996 16.7028 23.7267 20.3606 28.7863 20.3606C33.8459 20.3606 37.2755 16.7028 40.9637 12.7662C43.5341 10.0234 44.5962 8.63688 45.8256 7.54182C47.7926 5.70913 50.2616 4.40875 53.0043 3.86882C53.7217 3.69645 54.3503 3.58238 54.9282 3.41762C55.4783 3.26046 56.804 1.41508 56.804 0.5C53.2933 0.545627 48.8826 1.13625 47.3338 2.18821H47.3364Z" fill="#203567"></path><path d="M80.4719 0.538086H77.1335H77.1056V12.5786L64.2083 0.936058L63.7773 0.538086V0.548225V0.545691V5.40247V20.4772H65.7216H67.1436V8.45444L80.4719 20.4772V0.538086Z" fill="#203567"></path><path d="M130.411 0.538086L125.174 8.83466L119.94 0.538086H116.201L123.491 12.0894V20.4772H125.174H126.86V12.0894L134.15 0.538086H130.411Z" fill="#203567"></path><path d="M145.886 20.5001C140.081 20.5001 135.465 15.983 135.465 10.533C135.465 5.08308 140.081 0.538086 145.886 0.538086C151.691 0.538086 156.231 4.85241 156.231 10.6065C156.231 16.0311 151.486 20.4975 145.886 20.4975M145.886 3.46331C142.051 3.46331 138.898 6.49246 138.898 10.4291C138.898 14.3657 141.975 17.5951 145.711 17.5951C149.699 17.5951 152.801 14.4925 152.801 10.5812C152.801 6.6699 149.648 3.46584 145.886 3.46584" fill="#203567"></path><path d="M92.3679 0.538086H88.9966V20.4772H92.3679V0.538086Z" fill="#203567"></path><path d="M108.391 12.6243C111.473 12.0717 113.605 9.46331 113.605 6.72313C113.607 1.50894 108.839 0.5609 105.151 0.5609C103.744 0.553295 102.338 0.545691 100.931 0.538086C100.931 1.57231 100.931 2.60653 100.931 3.64075H105.861C108.733 3.64075 110.074 4.77383 110.074 6.90564C110.074 8.6699 108.599 10.1984 105.623 10.1984H100.931C100.931 13.6306 100.933 17.0653 100.933 20.4975H104.305V13.1236H104.832L111.6 20.4975H116.261L108.386 12.6217L108.391 12.6243Z" fill="#203567"></path></g><defs><clipPath id="clip0_2927_3608"><rect width="155.463" height="20" fill="white" transform="translate(0.768555 0.5)"></rect></clipPath></defs></svg>